<svg xmlns="http://www.w3.org/2000/svg" width="561" height="473" viewBox="0 0 561 473" version="1.1"><path d="M 327.500 70.982 C 325.300 72.117, 322.048 74.979, 320.273 77.341 C 318.498 79.703, 315.058 85.655, 312.628 90.568 C 310.197 95.480, 306.699 103.730, 304.854 108.899 C 303.009 114.068, 290.337 141.068, 276.694 168.899 C 260.312 202.316, 250.759 220.689, 248.562 223 C 246.733 224.925, 244.733 227.483, 244.118 228.684 C 243.503 229.886, 243 232.628, 243 234.779 C 243 237.631, 241.955 240.290, 239.142 244.595 C 237.021 247.843, 234.096 251.591, 232.642 252.924 C 231.189 254.258, 230 255.908, 230 256.591 C 230 257.275, 228.379 260.889, 226.398 264.624 C 224.417 268.358, 219.242 279.431, 214.898 289.230 C 210.554 299.030, 207 307.213, 207 307.415 C 207 307.618, 208.125 308.066, 209.500 308.411 C 210.875 308.756, 212 309.480, 212 310.019 C 212 310.559, 210.927 311, 209.615 311 C 208.206 311, 206.591 311.975, 205.669 313.383 C 204.810 314.693, 202.561 319.531, 200.671 324.133 C 198.781 328.735, 194.096 339.700, 190.260 348.500 C 186.424 357.300, 181.770 368.847, 179.918 374.160 C 177.212 381.923, 176.742 384.355, 177.525 386.547 C 178.061 388.048, 179.850 390.002, 181.500 390.891 C 183.150 391.780, 187.617 395.087, 191.426 398.238 C 195.235 401.390, 200.288 404.708, 202.656 405.613 L 206.960 407.256 209.534 405.570 C 210.949 404.642, 212.350 403.251, 212.647 402.477 C 212.944 401.704, 212.245 399.748, 211.093 398.131 C 209.942 396.514, 209 394.872, 209 394.482 C 209 394.091, 210.985 390.561, 213.412 386.636 C 215.838 382.711, 220.215 373.650, 223.138 366.500 C 226.062 359.350, 233.496 343.375, 239.660 331 C 245.824 318.625, 254.118 302.875, 258.092 296 C 262.066 289.125, 269.980 273.825, 275.680 262 C 281.380 250.175, 286.804 239.150, 287.732 237.500 C 288.661 235.850, 296.539 221.450, 305.238 205.500 C 313.938 189.550, 326.618 165.475, 333.416 152 C 340.214 138.525, 348.113 122.100, 350.971 115.500 C 353.828 108.900, 357.028 102.097, 358.083 100.382 C 359.137 98.667, 360 96.331, 360 95.191 C 360 94.051, 359.550 92.840, 359 92.500 C 358.450 92.160, 358 91.296, 358 90.581 C 358 89.865, 359.125 87.621, 360.500 85.595 C 361.875 83.569, 363 81.738, 363 81.526 C 363 81.315, 360.886 79.715, 358.303 77.972 C 355.720 76.228, 350.454 73.735, 346.601 72.432 C 342.748 71.128, 337.774 69.805, 335.548 69.490 C 332.570 69.069, 330.443 69.464, 327.500 70.982 M 320.143 81.733 C 319.564 82.815, 318.170 87.021, 317.045 91.080 C 315.920 95.139, 315 98.651, 315 98.885 C 315 99.119, 315.869 98.524, 316.931 97.563 C 317.992 96.602, 320.044 92.862, 321.489 89.252 L 324.117 82.688 322.656 81.227 L 321.195 79.767 320.143 81.733 M 337.688 96.036 C 336.759 97.361, 336 98.795, 336 99.223 C 336 99.650, 336.434 100, 336.965 100 C 337.495 100, 338.425 99.075, 339.030 97.945 C 339.635 96.814, 339.960 95.380, 339.753 94.758 C 339.545 94.135, 338.616 94.710, 337.688 96.036 M 325.980 146.524 C 325.284 147.362, 324.985 148.318, 325.314 148.648 C 325.644 148.977, 326.608 148.981, 327.457 148.655 C 328.306 148.329, 329 147.374, 329 146.531 C 329 145.689, 328.605 145, 328.122 145 C 327.640 145, 326.676 145.686, 325.980 146.524 M 286.591 186.250 C 285.791 187.488, 284.206 190.879, 283.068 193.787 C 281.931 196.695, 281 199.337, 281 199.659 C 281 199.981, 281.705 199.660, 282.566 198.945 C 283.427 198.230, 284.815 196.324, 285.650 194.709 C 286.486 193.094, 287.786 190.024, 288.540 187.886 C 289.294 185.749, 289.492 184, 288.979 184 C 288.466 184, 287.391 185.012, 286.591 186.250 M 403.500 216.202 C 401.850 216.776, 399.038 218.629, 397.250 220.319 C 395.462 222.009, 394 223.988, 394 224.716 C 394 225.692, 395.073 225.493, 398.075 223.962 C 400.317 222.818, 402.818 222.021, 403.634 222.191 C 404.654 222.404, 403.674 223.982, 400.492 227.250 C 397.948 229.863, 395.192 232, 394.368 232 C 393.543 232, 392.086 231.581, 391.130 231.070 C 390.174 230.558, 388.812 230.498, 388.102 230.937 C 387.074 231.572, 387.165 232.422, 388.553 235.117 C 389.511 236.978, 392.411 241.650, 394.998 245.500 C 397.585 249.350, 404.197 259.700, 409.693 268.500 C 415.188 277.300, 421.555 287.913, 423.842 292.085 C 426.129 296.257, 428 300.421, 428 301.338 C 428 302.255, 426.144 304.682, 423.876 306.731 C 421.608 308.780, 416.161 314.741, 411.772 319.978 C 407.383 325.215, 402.006 332.110, 399.824 335.300 C 397.642 338.490, 395.020 342.971, 393.997 345.256 C 392.973 347.542, 392.385 349.814, 392.690 350.307 C 392.994 350.799, 393.526 353.502, 393.872 356.314 L 394.500 361.425 397.500 362.942 C 399.150 363.776, 401.484 365.022, 402.686 365.710 L 404.871 366.962 403.965 370.123 C 403.466 371.862, 403.309 373.690, 403.615 374.186 C 403.921 374.681, 408.419 372.817, 413.610 370.043 C 418.802 367.269, 423.236 365, 423.464 365 C 423.693 365, 424.019 366.688, 424.190 368.750 L 424.500 372.500 427.210 368.333 C 428.701 366.041, 433.568 359.631, 438.027 354.088 C 442.486 348.545, 452.995 337.145, 461.382 328.755 C 469.769 320.365, 477.356 311.946, 478.242 310.047 C 479.446 307.465, 479.589 306.077, 478.808 304.547 C 478.234 303.421, 476.291 300.925, 474.490 299 C 472.690 297.075, 470.889 294.375, 470.488 293 C 470.086 291.625, 468.261 288.395, 466.432 285.822 C 464.603 283.249, 461.894 278.749, 460.412 275.822 C 458.930 272.895, 455.460 267.125, 452.699 263 C 449.939 258.875, 442.753 249.088, 436.729 241.250 L 425.778 227 419.766 227 L 413.755 227 415 225.500 C 415.685 224.675, 417.795 224, 419.690 224 L 423.135 224 422.487 221.750 C 422.130 220.512, 420.725 218.488, 419.363 217.250 C 417.430 215.492, 415.752 215.017, 411.694 215.079 C 408.837 215.122, 405.150 215.628, 403.500 216.202 M 128.043 230.560 C 125.042 231.957, 117.617 236.781, 111.543 241.281 C 105.469 245.781, 95.325 253.486, 89 258.402 C 82.675 263.319, 74.926 269.603, 71.780 272.367 C 68.633 275.131, 66.224 277.558, 66.426 277.759 C 66.627 277.961, 69.586 277.619, 73 277 C 76.414 276.381, 79.427 276.093, 79.694 276.361 C 79.961 276.628, 78.288 280.031, 75.976 283.923 C 73.664 287.816, 71.584 291, 71.354 291 C 71.124 291, 69.320 290.325, 67.346 289.500 C 65.371 288.675, 63.352 288, 62.858 288 C 62.364 288, 62.870 289.784, 63.982 291.965 C 65.095 294.146, 69.302 299.883, 73.332 304.715 C 77.361 309.547, 85.573 318.961, 91.579 325.636 C 97.586 332.310, 105.783 341.654, 109.796 346.399 C 113.810 351.144, 119.362 356.821, 122.136 359.013 C 124.910 361.206, 128.138 363, 129.310 363 C 130.482 363, 136.515 361.313, 142.716 359.250 C 148.917 357.188, 153.993 355.265, 153.995 354.979 C 153.998 354.692, 149.219 349.067, 143.375 342.479 C 137.531 335.890, 128.419 325.190, 123.125 318.700 C 117.831 312.210, 111.597 304.554, 109.272 301.685 C 106.947 298.817, 104.769 295.095, 104.433 293.416 L 103.822 290.362 114.161 281.448 C 119.848 276.545, 128.928 268.257, 134.339 263.029 C 139.751 257.802, 145.746 251.390, 147.661 248.780 C 149.795 245.874, 151.019 243.160, 150.822 241.774 C 150.591 240.152, 149.652 239.364, 147.500 238.986 C 145.186 238.579, 144.564 237.991, 144.781 236.418 C 144.987 234.924, 143.742 233.522, 140.141 231.188 C 137.435 229.435, 134.833 228.004, 134.360 228.010 C 133.887 228.015, 131.044 229.163, 128.043 230.560 M 401.161 240.750 C 400.661 241.713, 400.532 243.246, 400.876 244.158 C 401.219 245.070, 403.191 247.995, 405.257 250.658 C 407.323 253.321, 411.489 259.100, 414.514 263.500 C 417.540 267.900, 423.783 277.179, 428.389 284.120 C 432.995 291.061, 437.984 298.824, 439.477 301.370 C 441.696 305.156, 442.709 306, 445.036 306 C 446.601 306, 448.093 305.658, 448.352 305.240 C 448.610 304.822, 444.474 297.705, 439.161 289.425 C 433.847 281.145, 427.587 272.556, 425.250 270.340 C 422.913 268.123, 421 265.513, 421 264.539 C 421 263.565, 419.491 260.683, 417.647 258.134 C 415.802 255.585, 413.027 251.250, 411.480 248.500 C 409.933 245.750, 407.764 242.488, 406.660 241.250 C 405.555 240.012, 404.071 239, 403.361 239 C 402.651 239, 401.661 239.787, 401.161 240.750 M 132.589 248.077 C 131.165 249.769, 129.721 252.265, 129.380 253.624 C 129.039 254.982, 129 256.334, 129.294 256.628 C 129.588 256.922, 130.753 256.667, 131.883 256.063 C 133.013 255.458, 135.076 253.019, 136.469 250.644 C 137.861 248.268, 139 246.026, 139 245.662 C 139 245.298, 138.140 245, 137.089 245 C 136.038 245, 134.013 246.385, 132.589 248.077 M 119.750 252.080 C 118.787 252.641, 118 253.527, 118 254.050 C 118 254.572, 119.295 255, 120.878 255 C 122.460 255, 124.256 254.396, 124.869 253.658 C 125.481 252.920, 125.687 252.020, 125.325 251.658 C 124.963 251.296, 123.954 251.014, 123.083 251.030 C 122.213 251.047, 120.713 251.519, 119.750 252.080 M 93 258 C 91.900 259.100, 91 260.450, 91 261 C 91 261.550, 91.350 262, 91.777 262 C 92.205 262, 93.555 261.299, 94.777 260.443 C 96 259.587, 97 258.237, 97 257.443 C 97 256.649, 96.550 256, 96 256 C 95.450 256, 94.100 256.900, 93 258 M 109.121 265.999 C 106.854 268.198, 105 270.448, 105 270.999 C 105 271.550, 105.728 272, 106.618 272 C 107.507 272, 109.982 270.253, 112.118 268.118 C 114.253 265.982, 116 263.732, 116 263.118 C 116 262.503, 115.379 262, 114.621 262 C 113.862 262, 111.387 263.800, 109.121 265.999 M 443 263.806 C 443 264.499, 444.166 267.368, 445.592 270.181 C 447.017 272.994, 451.292 280.373, 455.092 286.580 C 458.891 292.787, 462 298.346, 462 298.933 C 462 299.520, 461.650 300, 461.223 300 C 460.795 300, 459.332 299.258, 457.973 298.352 C 456.613 297.446, 453.560 294.858, 451.190 292.602 L 446.879 288.500 447.917 291.257 C 448.488 292.773, 449.624 295.307, 450.442 296.888 C 451.259 298.468, 453.329 300.940, 455.041 302.381 L 458.153 305 464.114 305 L 470.075 305 466.082 299.121 C 463.886 295.887, 458.894 287.450, 454.989 280.371 C 451.084 273.292, 446.788 266.385, 445.444 265.023 C 444.100 263.660, 443 263.113, 443 263.806 M 253.333 266.667 C 253.700 267.033, 254.300 267.033, 254.667 266.667 C 255.033 266.300, 254.733 266, 254 266 C 253.267 266, 252.967 266.300, 253.333 266.667 M 232.764 270.750 C 231.913 271.712, 228.959 277.024, 226.198 282.553 C 223.438 288.082, 220.389 293.257, 219.423 294.053 C 218.457 294.849, 216.392 297.255, 214.833 299.400 C 213.275 301.545, 212 304.331, 212 305.591 C 212 306.851, 212.518 308.202, 213.151 308.593 C 213.822 309.008, 215.497 307.885, 217.165 305.903 C 218.740 304.031, 223.622 295.316, 228.014 286.535 C 232.406 277.755, 236 270.217, 236 269.785 C 236 269.353, 235.620 269, 235.155 269 C 234.690 269, 233.614 269.788, 232.764 270.750 M 248.447 275.281 C 247.376 277.051, 246.201 279.512, 245.836 280.750 C 245.472 281.988, 245.529 283, 245.964 283 C 246.399 283, 247.213 282.438, 247.774 281.750 C 248.334 281.063, 249.277 278.725, 249.869 276.556 C 250.461 274.387, 250.822 272.488, 250.670 272.337 C 250.519 272.185, 249.519 273.510, 248.447 275.281 M 230.453 308.431 C 229.577 309.768, 227.992 313.148, 226.930 315.942 C 225.869 318.736, 225 321.692, 225 322.511 C 225 323.330, 225.433 324, 225.962 324 C 226.492 324, 228.517 320.690, 230.462 316.645 C 232.408 312.600, 234 308.550, 234 307.645 C 234 306.740, 233.560 306, 233.023 306 C 232.486 306, 231.329 307.094, 230.453 308.431 M 438.079 315.032 C 435.134 317.360, 425.024 326.743, 415.612 335.882 C 406.200 345.022, 398.350 352.837, 398.167 353.249 C 397.984 353.662, 398.504 354.256, 399.324 354.571 C 400.143 354.885, 402.543 354.034, 404.657 352.679 C 406.771 351.324, 413.470 345.960, 419.544 340.758 C 425.618 335.557, 432.629 328.871, 435.122 325.900 C 437.616 322.930, 440.670 318.812, 441.911 316.748 C 443.151 314.685, 444.001 312.502, 443.799 311.898 C 443.598 311.294, 441.024 312.704, 438.079 315.032 M 457.500 312.147 C 456.400 312.766, 454.488 314.190, 453.250 315.311 C 452.012 316.432, 451 317.720, 451 318.174 C 451 318.628, 452.688 318.993, 454.750 318.985 C 456.813 318.977, 459.625 318.401, 461 317.706 C 462.651 316.871, 463.500 315.602, 463.500 313.970 C 463.500 312.247, 462.896 311.427, 461.500 311.260 C 460.400 311.128, 458.600 311.527, 457.500 312.147 M 434.272 336.628 C 426.697 343.023, 418.141 350.541, 415.258 353.336 C 412.181 356.317, 410.385 358.785, 410.909 359.309 C 411.400 359.800, 413.193 359.897, 414.892 359.524 C 416.660 359.135, 420.231 356.628, 423.241 353.660 C 426.133 350.809, 430.188 346.518, 432.250 344.126 C 434.313 341.734, 436 339.377, 436 338.889 C 436 338.400, 437.012 337.998, 438.250 337.996 C 439.488 337.994, 441.944 337.112, 443.710 336.035 C 445.475 334.959, 447.837 332.279, 448.960 330.079 C 450.082 327.879, 451 325.837, 451 325.540 C 451 325.243, 450.335 325, 449.522 325 C 448.709 325, 441.847 330.232, 434.272 336.628 M 123 339.288 C 123 339.996, 124.332 342.134, 125.959 344.038 L 128.919 347.500 128.959 344.750 C 128.982 343.238, 128.100 341.100, 127 340 C 125.900 338.900, 124.550 338, 124 338 C 123.450 338, 123 338.579, 123 339.288 M 196.597 347.075 C 195.798 348.959, 195.523 350.888, 195.985 351.363 C 196.447 351.837, 197.265 351.954, 197.802 351.622 C 198.339 351.290, 199.078 349.825, 199.445 348.365 C 199.811 346.905, 199.647 345.247, 199.081 344.681 C 198.374 343.974, 197.594 344.725, 196.597 347.075 M 126.159 355.552 C 126.347 356.505, 127.266 357.768, 128.202 358.357 C 129.138 358.947, 130.247 359.086, 130.667 358.667 C 131.086 358.247, 130.947 357.138, 130.357 356.202 C 129.768 355.266, 128.505 354.347, 127.552 354.159 C 126.355 353.924, 125.924 354.355, 126.159 355.552 M 216.383 356.094 C 215.769 356.867, 214.306 360.104, 213.133 363.288 C 211.960 366.471, 211 369.803, 211 370.693 L 211 372.310 213.023 370.479 C 214.136 369.472, 215.744 366.250, 216.596 363.319 C 217.448 360.388, 218 357.247, 217.822 356.339 L 217.500 354.689 216.383 356.094 M 191.606 358.584 C 191.233 359.557, 191.456 360.015, 192.187 359.771 C 192.840 359.553, 193.553 358.841, 193.771 358.188 C 193.989 357.534, 193.727 357, 193.190 357 C 192.653 357, 191.941 357.713, 191.606 358.584 M 201.200 358.200 C 200.540 358.860, 200 359.746, 200 360.169 C 200 360.591, 200.640 360.692, 201.423 360.391 C 202.205 360.091, 203.091 359.205, 203.391 358.423 C 203.692 357.640, 203.591 357, 203.169 357 C 202.746 357, 201.860 357.540, 201.200 358.200 M 183.958 381.078 C 183.346 382.221, 183.092 383.796, 183.392 384.578 C 183.692 385.360, 184.862 386, 185.993 386 C 187.280 386, 188.414 385.040, 189.025 383.435 C 189.561 382.024, 190 380.449, 190 379.935 C 190 379.421, 188.891 379, 187.535 379 C 186.063 379, 184.622 379.837, 183.958 381.078 M 206 400 C 206 400.550, 206.873 401, 207.941 401 C 209.009 401, 210.160 400.550, 210.500 400 C 210.851 399.433, 210.010 399, 208.559 399 C 207.152 399, 206 399.450, 206 400" stroke="none" fill="#ac95dc" fill-rule="evenodd"/><path d="M 0 236.502 L 0 473.004 280.750 472.752 L 561.500 472.500 561.752 236.250 L 562.004 0 281.002 0 L 0 0 0 236.502 M 0.492 237 C 0.492 367.075, 0.608 420.287, 0.750 355.250 C 0.892 290.212, 0.892 183.787, 0.750 118.750 C 0.608 53.712, 0.492 106.925, 0.492 237 M 327.500 70.982 C 325.300 72.117, 322.048 74.979, 320.273 77.341 C 318.498 79.703, 315.058 85.655, 312.628 90.568 C 310.197 95.480, 306.699 103.730, 304.854 108.899 C 303.009 114.068, 290.337 141.068, 276.694 168.899 C 260.312 202.316, 250.759 220.689, 248.562 223 C 246.733 224.925, 244.733 227.483, 244.118 228.684 C 243.503 229.886, 243 232.628, 243 234.779 C 243 237.631, 241.955 240.290, 239.142 244.595 C 237.021 247.843, 234.096 251.591, 232.642 252.924 C 231.189 254.258, 230 255.908, 230 256.591 C 230 257.275, 228.379 260.889, 226.398 264.624 C 224.417 268.358, 219.242 279.431, 214.898 289.230 C 210.554 299.030, 207 307.213, 207 307.415 C 207 307.618, 208.125 308.066, 209.500 308.411 C 210.875 308.756, 212 309.480, 212 310.019 C 212 310.559, 210.927 311, 209.615 311 C 208.206 311, 206.591 311.975, 205.669 313.383 C 204.810 314.693, 202.561 319.531, 200.671 324.133 C 198.781 328.735, 194.096 339.700, 190.260 348.500 C 186.424 357.300, 181.770 368.847, 179.918 374.160 C 177.212 381.923, 176.742 384.355, 177.525 386.547 C 178.061 388.048, 179.850 390.002, 181.500 390.891 C 183.150 391.780, 187.617 395.087, 191.426 398.238 C 195.235 401.390, 200.288 404.708, 202.656 405.613 L 206.960 407.256 209.534 405.570 C 210.949 404.642, 212.350 403.251, 212.647 402.477 C 212.944 401.704, 212.245 399.748, 211.093 398.131 C 209.942 396.514, 209 394.872, 209 394.482 C 209 394.091, 210.985 390.561, 213.412 386.636 C 215.838 382.711, 220.215 373.650, 223.138 366.500 C 226.062 359.350, 233.496 343.375, 239.660 331 C 245.824 318.625, 254.118 302.875, 258.092 296 C 262.066 289.125, 269.980 273.825, 275.680 262 C 281.380 250.175, 286.804 239.150, 287.732 237.500 C 288.661 235.850, 296.539 221.450, 305.238 205.500 C 313.938 189.550, 326.618 165.475, 333.416 152 C 340.214 138.525, 348.113 122.100, 350.971 115.500 C 353.828 108.900, 357.028 102.097, 358.083 100.382 C 359.137 98.667, 360 96.331, 360 95.191 C 360 94.051, 359.550 92.840, 359 92.500 C 358.450 92.160, 358 91.296, 358 90.581 C 358 89.865, 359.125 87.621, 360.500 85.595 C 361.875 83.569, 363 81.738, 363 81.526 C 363 81.315, 360.886 79.715, 358.303 77.972 C 355.720 76.228, 350.454 73.735, 346.601 72.432 C 342.748 71.128, 337.774 69.805, 335.548 69.490 C 332.570 69.069, 330.443 69.464, 327.500 70.982 M 320.143 81.733 C 319.564 82.815, 318.170 87.021, 317.045 91.080 C 315.920 95.139, 315 98.651, 315 98.885 C 315 99.119, 315.869 98.524, 316.931 97.563 C 317.992 96.602, 320.044 92.862, 321.489 89.252 L 324.117 82.688 322.656 81.227 L 321.195 79.767 320.143 81.733 M 337.688 96.036 C 336.759 97.361, 336 98.795, 336 99.223 C 336 99.650, 336.434 100, 336.965 100 C 337.495 100, 338.425 99.075, 339.030 97.945 C 339.635 96.814, 339.960 95.380, 339.753 94.758 C 339.545 94.135, 338.616 94.710, 337.688 96.036 M 325.980 146.524 C 325.284 147.362, 324.985 148.318, 325.314 148.648 C 325.644 148.977, 326.608 148.981, 327.457 148.655 C 328.306 148.329, 329 147.374, 329 146.531 C 329 145.689, 328.605 145, 328.122 145 C 327.640 145, 326.676 145.686, 325.980 146.524 M 286.591 186.250 C 285.791 187.488, 284.206 190.879, 283.068 193.787 C 281.931 196.695, 281 199.337, 281 199.659 C 281 199.981, 281.705 199.660, 282.566 198.945 C 283.427 198.230, 284.815 196.324, 285.650 194.709 C 286.486 193.094, 287.786 190.024, 288.540 187.886 C 289.294 185.749, 289.492 184, 288.979 184 C 288.466 184, 287.391 185.012, 286.591 186.250 M 403.500 216.202 C 401.850 216.776, 399.038 218.629, 397.250 220.319 C 395.462 222.009, 394 223.988, 394 224.716 C 394 225.692, 395.073 225.493, 398.075 223.962 C 400.317 222.818, 402.818 222.021, 403.634 222.191 C 404.654 222.404, 403.674 223.982, 400.492 227.250 C 397.948 229.863, 395.192 232, 394.368 232 C 393.543 232, 392.086 231.581, 391.130 231.070 C 390.174 230.558, 388.812 230.498, 388.102 230.937 C 387.074 231.572, 387.165 232.422, 388.553 235.117 C 389.511 236.978, 392.411 241.650, 394.998 245.500 C 397.585 249.350, 404.197 259.700, 409.693 268.500 C 415.188 277.300, 421.555 287.913, 423.842 292.085 C 426.129 296.257, 428 300.421, 428 301.338 C 428 302.255, 426.144 304.682, 423.876 306.731 C 421.608 308.780, 416.161 314.741, 411.772 319.978 C 407.383 325.215, 402.006 332.110, 399.824 335.300 C 397.642 338.490, 395.020 342.971, 393.997 345.256 C 392.973 347.542, 392.385 349.814, 392.690 350.307 C 392.994 350.799, 393.526 353.502, 393.872 356.314 L 394.500 361.425 397.500 362.942 C 399.150 363.776, 401.484 365.022, 402.686 365.710 L 404.871 366.962 403.965 370.123 C 403.466 371.862, 403.309 373.690, 403.615 374.186 C 403.921 374.681, 408.419 372.817, 413.610 370.043 C 418.802 367.269, 423.236 365, 423.464 365 C 423.693 365, 424.019 366.688, 424.190 368.750 L 424.500 372.500 427.210 368.333 C 428.701 366.041, 433.568 359.631, 438.027 354.088 C 442.486 348.545, 452.995 337.145, 461.382 328.755 C 469.769 320.365, 477.356 311.946, 478.242 310.047 C 479.446 307.465, 479.589 306.077, 478.808 304.547 C 478.234 303.421, 476.291 300.925, 474.490 299 C 472.690 297.075, 470.889 294.375, 470.488 293 C 470.086 291.625, 468.261 288.395, 466.432 285.822 C 464.603 283.249, 461.894 278.749, 460.412 275.822 C 458.930 272.895, 455.460 267.125, 452.699 263 C 449.939 258.875, 442.753 249.088, 436.729 241.250 L 425.778 227 419.766 227 L 413.755 227 415 225.500 C 415.685 224.675, 417.795 224, 419.690 224 L 423.135 224 422.487 221.750 C 422.130 220.512, 420.725 218.488, 419.363 217.250 C 417.430 215.492, 415.752 215.017, 411.694 215.079 C 408.837 215.122, 405.150 215.628, 403.500 216.202 M 128.043 230.560 C 125.042 231.957, 117.617 236.781, 111.543 241.281 C 105.469 245.781, 95.325 253.486, 89 258.402 C 82.675 263.319, 74.926 269.603, 71.780 272.367 C 68.633 275.131, 66.224 277.558, 66.426 277.759 C 66.627 277.961, 69.586 277.619, 73 277 C 76.414 276.381, 79.427 276.093, 79.694 276.361 C 79.961 276.628, 78.288 280.031, 75.976 283.923 C 73.664 287.816, 71.584 291, 71.354 291 C 71.124 291, 69.320 290.325, 67.346 289.500 C 65.371 288.675, 63.352 288, 62.858 288 C 62.364 288, 62.870 289.784, 63.982 291.965 C 65.095 294.146, 69.302 299.883, 73.332 304.715 C 77.361 309.547, 85.573 318.961, 91.579 325.636 C 97.586 332.310, 105.783 341.654, 109.796 346.399 C 113.810 351.144, 119.362 356.821, 122.136 359.013 C 124.910 361.206, 128.138 363, 129.310 363 C 130.482 363, 136.515 361.313, 142.716 359.250 C 148.917 357.188, 153.993 355.265, 153.995 354.979 C 153.998 354.692, 149.219 349.067, 143.375 342.479 C 137.531 335.890, 128.419 325.190, 123.125 318.700 C 117.831 312.210, 111.597 304.554, 109.272 301.685 C 106.947 298.817, 104.769 295.095, 104.433 293.416 L 103.822 290.362 114.161 281.448 C 119.848 276.545, 128.928 268.257, 134.339 263.029 C 139.751 257.802, 145.746 251.390, 147.661 248.780 C 149.795 245.874, 151.019 243.160, 150.822 241.774 C 150.591 240.152, 149.652 239.364, 147.500 238.986 C 145.186 238.579, 144.564 237.991, 144.781 236.418 C 144.987 234.924, 143.742 233.522, 140.141 231.188 C 137.435 229.435, 134.833 228.004, 134.360 228.010 C 133.887 228.015, 131.044 229.163, 128.043 230.560 M 401.161 240.750 C 400.661 241.713, 400.532 243.246, 400.876 244.158 C 401.219 245.070, 403.191 247.995, 405.257 250.658 C 407.323 253.321, 411.489 259.100, 414.514 263.500 C 417.540 267.900, 423.783 277.179, 428.389 284.120 C 432.995 291.061, 437.984 298.824, 439.477 301.370 C 441.696 305.156, 442.709 306, 445.036 306 C 446.601 306, 448.093 305.658, 448.352 305.240 C 448.610 304.822, 444.474 297.705, 439.161 289.425 C 433.847 281.145, 427.587 272.556, 425.250 270.340 C 422.913 268.123, 421 265.513, 421 264.539 C 421 263.565, 419.491 260.683, 417.647 258.134 C 415.802 255.585, 413.027 251.250, 411.480 248.500 C 409.933 245.750, 407.764 242.488, 406.660 241.250 C 405.555 240.012, 404.071 239, 403.361 239 C 402.651 239, 401.661 239.787, 401.161 240.750 M 132.589 248.077 C 131.165 249.769, 129.721 252.265, 129.380 253.624 C 129.039 254.982, 129 256.334, 129.294 256.628 C 129.588 256.922, 130.753 256.667, 131.883 256.063 C 133.013 255.458, 135.076 253.019, 136.469 250.644 C 137.861 248.268, 139 246.026, 139 245.662 C 139 245.298, 138.140 245, 137.089 245 C 136.038 245, 134.013 246.385, 132.589 248.077 M 119.750 252.080 C 118.787 252.641, 118 253.527, 118 254.050 C 118 254.572, 119.295 255, 120.878 255 C 122.460 255, 124.256 254.396, 124.869 253.658 C 125.481 252.920, 125.687 252.020, 125.325 251.658 C 124.963 251.296, 123.954 251.014, 123.083 251.030 C 122.213 251.047, 120.713 251.519, 119.750 252.080 M 93 258 C 91.900 259.100, 91 260.450, 91 261 C 91 261.550, 91.350 262, 91.777 262 C 92.205 262, 93.555 261.299, 94.777 260.443 C 96 259.587, 97 258.237, 97 257.443 C 97 256.649, 96.550 256, 96 256 C 95.450 256, 94.100 256.900, 93 258 M 109.121 265.999 C 106.854 268.198, 105 270.448, 105 270.999 C 105 271.550, 105.728 272, 106.618 272 C 107.507 272, 109.982 270.253, 112.118 268.118 C 114.253 265.982, 116 263.732, 116 263.118 C 116 262.503, 115.379 262, 114.621 262 C 113.862 262, 111.387 263.800, 109.121 265.999 M 443 263.806 C 443 264.499, 444.166 267.368, 445.592 270.181 C 447.017 272.994, 451.292 280.373, 455.092 286.580 C 458.891 292.787, 462 298.346, 462 298.933 C 462 299.520, 461.650 300, 461.223 300 C 460.795 300, 459.332 299.258, 457.973 298.352 C 456.613 297.446, 453.560 294.858, 451.190 292.602 L 446.879 288.500 447.917 291.257 C 448.488 292.773, 449.624 295.307, 450.442 296.888 C 451.259 298.468, 453.329 300.940, 455.041 302.381 L 458.153 305 464.114 305 L 470.075 305 466.082 299.121 C 463.886 295.887, 458.894 287.450, 454.989 280.371 C 451.084 273.292, 446.788 266.385, 445.444 265.023 C 444.100 263.660, 443 263.113, 443 263.806 M 253.333 266.667 C 253.700 267.033, 254.300 267.033, 254.667 266.667 C 255.033 266.300, 254.733 266, 254 266 C 253.267 266, 252.967 266.300, 253.333 266.667 M 232.764 270.750 C 231.913 271.712, 228.959 277.024, 226.198 282.553 C 223.438 288.082, 220.389 293.257, 219.423 294.053 C 218.457 294.849, 216.392 297.255, 214.833 299.400 C 213.275 301.545, 212 304.331, 212 305.591 C 212 306.851, 212.518 308.202, 213.151 308.593 C 213.822 309.008, 215.497 307.885, 217.165 305.903 C 218.740 304.031, 223.622 295.316, 228.014 286.535 C 232.406 277.755, 236 270.217, 236 269.785 C 236 269.353, 235.620 269, 235.155 269 C 234.690 269, 233.614 269.788, 232.764 270.750 M 248.447 275.281 C 247.376 277.051, 246.201 279.512, 245.836 280.750 C 245.472 281.988, 245.529 283, 245.964 283 C 246.399 283, 247.213 282.438, 247.774 281.750 C 248.334 281.063, 249.277 278.725, 249.869 276.556 C 250.461 274.387, 250.822 272.488, 250.670 272.337 C 250.519 272.185, 249.519 273.510, 248.447 275.281 M 230.453 308.431 C 229.577 309.768, 227.992 313.148, 226.930 315.942 C 225.869 318.736, 225 321.692, 225 322.511 C 225 323.330, 225.433 324, 225.962 324 C 226.492 324, 228.517 320.690, 230.462 316.645 C 232.408 312.600, 234 308.550, 234 307.645 C 234 306.740, 233.560 306, 233.023 306 C 232.486 306, 231.329 307.094, 230.453 308.431 M 438.079 315.032 C 435.134 317.360, 425.024 326.743, 415.612 335.882 C 406.200 345.022, 398.350 352.837, 398.167 353.249 C 397.984 353.662, 398.504 354.256, 399.324 354.571 C 400.143 354.885, 402.543 354.034, 404.657 352.679 C 406.771 351.324, 413.470 345.960, 419.544 340.758 C 425.618 335.557, 432.629 328.871, 435.122 325.900 C 437.616 322.930, 440.670 318.812, 441.911 316.748 C 443.151 314.685, 444.001 312.502, 443.799 311.898 C 443.598 311.294, 441.024 312.704, 438.079 315.032 M 457.500 312.147 C 456.400 312.766, 454.488 314.190, 453.250 315.311 C 452.012 316.432, 451 317.720, 451 318.174 C 451 318.628, 452.688 318.993, 454.750 318.985 C 456.813 318.977, 459.625 318.401, 461 317.706 C 462.651 316.871, 463.500 315.602, 463.500 313.970 C 463.500 312.247, 462.896 311.427, 461.500 311.260 C 460.400 311.128, 458.600 311.527, 457.500 312.147 M 434.272 336.628 C 426.697 343.023, 418.141 350.541, 415.258 353.336 C 412.181 356.317, 410.385 358.785, 410.909 359.309 C 411.400 359.800, 413.193 359.897, 414.892 359.524 C 416.660 359.135, 420.231 356.628, 423.241 353.660 C 426.133 350.809, 430.188 346.518, 432.250 344.126 C 434.313 341.734, 436 339.377, 436 338.889 C 436 338.400, 437.012 337.998, 438.250 337.996 C 439.488 337.994, 441.944 337.112, 443.710 336.035 C 445.475 334.959, 447.837 332.279, 448.960 330.079 C 450.082 327.879, 451 325.837, 451 325.540 C 451 325.243, 450.335 325, 449.522 325 C 448.709 325, 441.847 330.232, 434.272 336.628 M 123 339.288 C 123 339.996, 124.332 342.134, 125.959 344.038 L 128.919 347.500 128.959 344.750 C 128.982 343.238, 128.100 341.100, 127 340 C 125.900 338.900, 124.550 338, 124 338 C 123.450 338, 123 338.579, 123 339.288 M 196.597 347.075 C 195.798 348.959, 195.523 350.888, 195.985 351.363 C 196.447 351.837, 197.265 351.954, 197.802 351.622 C 198.339 351.290, 199.078 349.825, 199.445 348.365 C 199.811 346.905, 199.647 345.247, 199.081 344.681 C 198.374 343.974, 197.594 344.725, 196.597 347.075 M 126.159 355.552 C 126.347 356.505, 127.266 357.768, 128.202 358.357 C 129.138 358.947, 130.247 359.086, 130.667 358.667 C 131.086 358.247, 130.947 357.138, 130.357 356.202 C 129.768 355.266, 128.505 354.347, 127.552 354.159 C 126.355 353.924, 125.924 354.355, 126.159 355.552 M 216.383 356.094 C 215.769 356.867, 214.306 360.104, 213.133 363.288 C 211.960 366.471, 211 369.803, 211 370.693 L 211 372.310 213.023 370.479 C 214.136 369.472, 215.744 366.250, 216.596 363.319 C 217.448 360.388, 218 357.247, 217.822 356.339 L 217.500 354.689 216.383 356.094 M 191.606 358.584 C 191.233 359.557, 191.456 360.015, 192.187 359.771 C 192.840 359.553, 193.553 358.841, 193.771 358.188 C 193.989 357.534, 193.727 357, 193.190 357 C 192.653 357, 191.941 357.713, 191.606 358.584 M 201.200 358.200 C 200.540 358.860, 200 359.746, 200 360.169 C 200 360.591, 200.640 360.692, 201.423 360.391 C 202.205 360.091, 203.091 359.205, 203.391 358.423 C 203.692 357.640, 203.591 357, 203.169 357 C 202.746 357, 201.860 357.540, 201.200 358.200 M 183.958 381.078 C 183.346 382.221, 183.092 383.796, 183.392 384.578 C 183.692 385.360, 184.862 386, 185.993 386 C 187.280 386, 188.414 385.040, 189.025 383.435 C 189.561 382.024, 190 380.449, 190 379.935 C 190 379.421, 188.891 379, 187.535 379 C 186.063 379, 184.622 379.837, 183.958 381.078 M 206 400 C 206 400.550, 206.873 401, 207.941 401 C 209.009 401, 210.160 400.550, 210.500 400 C 210.851 399.433, 210.010 399, 208.559 399 C 207.152 399, 206 399.450, 206 400" stroke="none" fill="#c3fbd3" fill-rule="evenodd"/></svg>